<?xml version="1.0" encoding="UTF-8"?>
<svg version="1.1" xmlns="http://www.w3.org/2000/svg" width="150" height="150">
<path d="M0 0 C10.56 0 21.12 0 32 0 C35 6 35 6 35 8 C39.29 8 43.58 8 48 8 C48 23.84 48 39.68 48 56 C26.88 56 5.76 56 -16 56 C-16 40.16 -16 24.32 -16 8 C-11.71 8 -7.42 8 -3 8 C-2.34 6.02 -1.68 4.04 -1 2 C-0.67 1.34 -0.34 0.68 0 0 Z M2.625 23.625 C0.42092107 28.20270239 0.2028361 32.00552411 1 37 C3.32968931 41.83858548 6.16141452 44.67031069 11 47 C15.99447589 47.7971639 19.79729761 47.57907893 24.375 45.375 C27.95907713 42.13226355 30.59535241 39.53524104 31.3828125 34.6015625 C31.63883919 28.91777006 30.93626932 25.35061345 27 21 C22.64938655 17.06373068 19.08222994 16.36116081 13.3984375 16.6171875 C8.46475896 17.40464759 5.86773645 20.04092287 2.625 23.625 Z " fill="#E8E8E8" transform="translate(60,49)"/>
<path d="M0 0 C2.5 1.5 2.5 1.5 4 4 C4.791013 8.02098277 4.62153384 10.96411027 2.5 14.5 C-1.03588973 16.62153384 -3.97901723 16.791013 -8 16 C-10.5 14.5 -10.5 14.5 -12 12 C-12.791013 7.97901723 -12.62153384 5.03588973 -10.5 1.5 C-6.96411027 -0.62153384 -4.02098277 -0.791013 0 0 Z " fill="#E8E8E8" transform="translate(80,73)"/>
</svg>
